<svg width="25" height="24" viewBox="0 0 25 24" fill="none" xmlns="http://www.w3.org/2000/svg">
<path id="Vector" d="M7.68159 14.6125L14.7909 7.50338C14.9149 7.37939 15.0621 7.28103 15.2241 7.21393C15.3861 7.14682 15.5597 7.11229 15.7351 7.11229C15.9104 7.11229 16.0841 7.14682 16.2461 7.21393C16.4081 7.28103 16.5553 7.37939 16.6793 7.50338C16.8033 7.62737 16.9016 7.77457 16.9687 7.93657C17.0358 8.09858 17.0704 8.27221 17.0704 8.44756C17.0704 8.62291 17.0358 8.79655 16.9687 8.95855C16.9016 9.12055 16.8033 9.26775 16.6793 9.39174L9.56999 16.5009C9.31957 16.7513 8.97993 16.892 8.62579 16.892C8.27164 16.892 7.932 16.7513 7.68159 16.5009C7.43117 16.2505 7.29049 15.9108 7.29049 15.5567C7.29049 15.2026 7.43117 14.8629 7.68159 14.6125ZM22.2334 1.94936C20.9822 0.701055 19.287 0 17.5196 0C15.7522 0 14.057 0.701055 12.8058 1.94936L9.46002 5.29177C9.2096 5.54218 9.06892 5.88181 9.06892 6.23595C9.06892 6.59009 9.2096 6.92972 9.46002 7.18014C9.71043 7.43055 10.0501 7.57123 10.4042 7.57123C10.7584 7.57123 11.098 7.43055 11.3484 7.18014L14.6887 3.84106C15.0601 3.46959 15.501 3.17492 15.9863 2.97385C16.4716 2.77279 16.9917 2.66928 17.517 2.66923C18.0423 2.66918 18.5624 2.77259 19.0478 2.97355C19.5331 3.17452 19.9741 3.46911 20.3455 3.8405C20.717 4.2119 21.0117 4.65282 21.2128 5.13809C21.4138 5.62337 21.5174 6.14349 21.5174 6.66877C21.5175 7.19405 21.414 7.7142 21.2131 8.19951C21.0121 8.68483 20.7175 9.12581 20.3461 9.49727L17.0014 12.8352C16.751 13.0857 16.6103 13.4253 16.6103 13.7794C16.6103 14.1336 16.751 14.4732 17.0014 14.7236C17.2518 14.974 17.5915 15.1147 17.9456 15.1147C18.2998 15.1147 18.6394 14.974 18.8898 14.7236L22.2312 11.3845C23.4801 10.1326 24.1813 8.43629 24.1807 6.66792C24.18 4.89956 23.4777 3.20371 22.2278 1.95269L22.2334 1.94936ZM13.0158 16.8208L9.67552 20.1621C9.30404 20.5335 8.86306 20.8281 8.37773 21.029C7.89241 21.23 7.37225 21.3334 6.84696 21.3334C6.32167 21.3333 5.80154 21.2298 5.31625 21.0287C4.83097 20.8277 4.39004 20.533 4.01864 20.1615C3.26857 19.4113 2.84724 18.3939 2.84734 17.333C2.84745 16.2722 3.26897 15.2548 4.0192 14.5048L7.35834 11.1646C7.48233 11.0406 7.58069 10.8934 7.64779 10.7314C7.7149 10.5694 7.74944 10.3958 7.74944 10.2204C7.74944 10.0451 7.7149 9.87142 7.64779 9.70942C7.58069 9.54741 7.48233 9.40021 7.35834 9.27622C7.23434 9.15223 7.08714 9.05387 6.92513 8.98677C6.76313 8.91967 6.58949 8.88513 6.41413 8.88513C6.23878 8.88513 6.06514 8.91967 5.90314 8.98677C5.74113 9.05387 5.59393 9.15223 5.46993 9.27622L2.13302 12.6197C0.882842 13.87 0.18056 15.5657 0.180664 17.3338C0.180768 19.1019 0.88325 20.7975 2.13357 22.0477C3.38389 23.2978 5.07963 24.0001 6.84775 24C8.61587 23.9999 10.3115 23.2974 11.5617 22.0471L14.9008 18.7069C15.1513 18.4565 15.2919 18.1169 15.2919 17.7628C15.2919 17.4086 15.1513 17.069 14.9008 16.8186C14.6504 16.5682 14.3108 16.4275 13.9566 16.4275C13.6025 16.4275 13.2629 16.5682 13.0124 16.8186L13.0158 16.8208Z" fill="white"/>
</svg>
