<svg width="25" height="24" viewBox="0 0 25 24" fill="none" xmlns="http://www.w3.org/2000/svg">
<path id="Vector" d="M12.5417 0.00767364C10.9783 -0.0492679 9.41958 0.211159 7.95965 0.773229C6.49972 1.3353 5.16888 2.18735 4.04747 3.27794C2.92606 4.36852 2.03736 5.67502 1.43502 7.11853C0.832689 8.56205 0.529215 10.1126 0.542928 11.6767C0.522282 13.2884 0.843486 14.8862 1.48537 16.3649C2.12726 17.8435 3.07526 19.1693 4.26691 20.255L4.32363 22.0981C4.3395 22.6078 4.5532 23.0914 4.91947 23.4464C5.28575 23.8014 5.77584 24 6.28597 24C6.55853 23.9997 6.8281 23.9433 7.07789 23.8342L9.17331 22.9094C10.2721 23.2018 11.4046 23.3484 12.5417 23.3457C14.1051 23.4026 15.6639 23.1422 17.1239 22.5801C18.5839 22.0181 19.9148 21.166 21.0363 20.0755C22.1578 18.9849 23.0466 17.6784 23.649 16.2349C24.2515 14.7914 24.5551 13.2408 24.5416 11.6767C24.5551 10.1127 24.2515 8.56216 23.6491 7.11872C23.0468 5.67527 22.158 4.36884 21.0367 3.27829C19.9153 2.18773 18.5845 1.33567 17.1247 0.773547C15.6648 0.211422 14.1051 -0.0491122 12.5417 0.00767364ZM12.5417 21.1645C11.5708 21.1676 10.6039 21.0392 9.66745 20.7828C9.23391 20.6661 8.77343 20.7015 8.36285 20.8832L6.49323 21.7076L6.44414 20.0794C6.43344 19.8156 6.36991 19.5566 6.2573 19.3178C6.1447 19.0789 5.98531 18.8651 5.78857 18.689C4.80716 17.8062 4.02592 16.7238 3.49727 15.5143C2.96861 14.3049 2.70477 12.9964 2.72343 11.6767C2.71655 10.4009 2.96827 9.13704 3.46339 7.96124C3.9585 6.78544 4.68676 5.72213 5.60421 4.83545C6.52166 3.94878 7.60927 3.25713 8.80143 2.80225C9.99359 2.34737 11.2656 2.13869 12.5406 2.18879C13.8139 2.14563 15.0829 2.35909 16.272 2.81647C17.461 3.27385 18.5459 3.96578 19.4619 4.85108C20.3779 5.73637 21.1064 6.79691 21.6039 7.96954C22.1014 9.14217 22.3578 10.4029 22.3578 11.6767C22.3578 12.9504 22.1014 14.2112 21.6039 15.3838C21.1064 16.5564 20.3779 17.617 19.4619 18.5023C18.5459 19.3876 17.461 20.0795 16.272 20.5369C15.0829 20.9942 13.8139 21.2077 12.5406 21.1645H12.5417ZM16.6158 8.27957L14.0928 11.2841L10.4419 9.04188C10.2191 8.90478 9.95442 8.85247 9.69622 8.89452C9.43802 8.93658 9.20361 9.07019 9.03587 9.27089L5.70785 13.2362C5.60819 13.3446 5.53154 13.4722 5.48253 13.6111C5.43352 13.75 5.41315 13.8974 5.42266 14.0443C5.43218 14.1913 5.47137 14.3348 5.53788 14.4663C5.6044 14.5977 5.69685 14.7143 5.80966 14.809C5.92247 14.9037 6.0533 14.9746 6.19427 15.0174C6.33523 15.0602 6.48341 15.074 6.62985 15.058C6.7763 15.042 6.91798 14.9965 7.04635 14.9242C7.17472 14.8519 7.28712 14.7544 7.37677 14.6375L10.1027 11.3931L13.7536 13.6353C13.9764 13.7724 14.2411 13.8247 14.4993 13.7827C14.7575 13.7406 14.9919 13.607 15.1596 13.4063L18.2858 9.68203C18.382 9.57295 18.4553 9.44576 18.5016 9.30792C18.5478 9.17008 18.5661 9.02439 18.5552 8.87941C18.5443 8.73443 18.5045 8.59309 18.4382 8.4637C18.3719 8.33431 18.2804 8.21948 18.169 8.12597C18.0577 8.03246 17.9287 7.96215 17.7898 7.91919C17.6509 7.87622 17.5048 7.86145 17.3601 7.87577C17.2154 7.89008 17.075 7.93317 16.9472 8.00252C16.8193 8.07187 16.7067 8.16606 16.6158 8.27957Z" fill="white"/>
</svg>
