<svg width="24" height="24" viewBox="0 0 24 24" fill="none" xmlns="http://www.w3.org/2000/svg">
<g id="Icons">
<g id="Group 2">
<path id="Vector 10" d="M12.4856 3.02297C10.9156 2.87405 7.30445 3.38038 5.42039 6.59707C3.06532 10.6179 5.42039 19.1065 2.12329 20H12.4856" stroke="#F5FFFF" strokeWidth="1.8" strokeLinejoin="round"/>
<path id="Vector 11" d="M11.5436 3.02297C13.1136 2.87405 16.7247 3.38038 18.6088 6.59707C20.9639 10.6179 18.6088 19.1065 21.9059 20H11.5436" stroke="#F5FFFF" strokeWidth="1.8" strokeLinejoin="round"/>
</g>
<path id="Ellipse 68" d="M9.18848 22C9.66415 23.1773 10.7505 24 12.0146 24C13.2786 24 14.365 23.1773 14.8407 22H9.18848Z" fill="#F5FFFF"/>
<path id="Subtract" fill-rule="evenodd" clip-rule="evenodd" d="M13.6466 3C13.8069 2.70583 13.8986 2.36429 13.8986 2C13.8986 0.89543 13.0551 0 12.0146 0C10.974 0 10.1305 0.89543 10.1305 2C10.1305 2.36429 10.2222 2.70583 10.3825 3H13.6466Z" fill="#F5FFFF"/>
</g>
</svg>
