<svg width="24" height="24" viewBox="0 0 24 24" fill="none" xmlns="http://www.w3.org/2000/svg">
<path id="Vector" d="M12 17.8363C11.575 17.8363 11.2185 17.6883 10.9305 17.3925C10.6425 17.0966 10.499 16.7309 10.5 16.2953V5.27769L7.6875 8.16693C7.3875 8.47512 7.0375 8.62921 6.6375 8.62921C6.2375 8.62921 5.875 8.46228 5.55 8.12841C5.25 7.82022 5.1065 7.45451 5.1195 7.03127C5.1325 6.60802 5.276 6.25464 5.55 5.97111L10.95 0.423755C11.1 0.269662 11.2625 0.16077 11.4375 0.0970782C11.6125 0.0333864 11.8 0.00102729 12 0C12.2 0 12.3875 0.0323591 12.5625 0.0970782C12.7375 0.161797 12.9 0.27069 13.05 0.423755L18.45 5.97111C18.75 6.27929 18.894 6.64552 18.882 7.06979C18.87 7.49406 18.726 7.84693 18.45 8.12841C18.15 8.4366 17.7935 8.59737 17.3805 8.61072C16.9675 8.62407 16.6115 8.47615 16.3125 8.16693L13.5 5.27769V16.2953C13.5 16.7319 13.356 17.0982 13.068 17.394C12.78 17.6899 12.424 17.8373 12 17.8363ZM3 24C2.175 24 1.4685 23.698 0.880502 23.0939C0.292502 22.4899 -0.000997453 21.7646 2.54669e-06 20.9181V17.8363C2.54669e-06 17.3997 0.144003 17.0334 0.432003 16.7376C0.720002 16.4417 1.076 16.2943 1.5 16.2953C1.925 16.2953 2.2815 16.4433 2.5695 16.7391C2.8575 17.035 3.001 17.4007 3 17.8363V20.9181H21V17.8363C21 17.3997 21.144 17.0334 21.432 16.7376C21.72 16.4417 22.076 16.2943 22.5 16.2953C22.925 16.2953 23.2815 16.4433 23.5695 16.7391C23.8575 17.035 24.001 17.4007 24 17.8363V20.9181C24 21.7656 23.706 22.4914 23.118 23.0955C22.53 23.6995 21.824 24.001 21 24H3Z" fill="white"/>
</svg>
