<svg width="24" height="24" viewBox="0 0 24 24" fill="none" xmlns="http://www.w3.org/2000/svg">
  <defs>
    <filter id="shadow">
      <feDropShadow dx="2" dy="2" stdDeviation="3" flood-color="#F539B7" floodOpacity="0.2" />
    </filter>
  </defs>
<path d="M12.8485 2.75137C12.3799 2.28275 11.6201 2.28275 11.1515 2.75137L2.75147 11.1514C2.28284 11.62 2.28284 12.3798 2.75147 12.8484C3.22009 13.3171 3.97989 13.3171 4.44852 12.8484L4.79999 12.497V20.3999C4.79999 21.0626 5.33725 21.5999 5.99999 21.5999H8.39999C9.06274 21.5999 9.59999 21.0626 9.59999 20.3999V17.9999C9.59999 17.3372 10.1373 16.7999 10.8 16.7999H13.2C13.8627 16.7999 14.4 17.3372 14.4 17.9999V20.3999C14.4 21.0626 14.9373 21.5999 15.6 21.5999H18C18.6627 21.5999 19.2 21.0626 19.2 20.3999V12.497L19.5515 12.8484C20.0201 13.3171 20.7799 13.3171 21.2485 12.8484C21.7172 12.3798 21.7172 11.62 21.2485 11.1514L12.8485 2.75137Z" fill="#F539B7" filter="url(#shadow)"/>
</svg>
