<svg width="25" height="24" viewBox="0 0 25 24" fill="none" xmlns="http://www.w3.org/2000/svg">
<path d="M9.72525 18.2503C11.4543 18.2534 13.1388 17.7022 14.5316 16.6778H14.5303C14.567 16.7278 14.6078 16.7757 14.6528 16.8215L19.4654 21.6341C19.6998 21.8687 20.0178 22.0005 20.3494 22.0006C20.681 22.0007 20.999 21.8691 21.2336 21.6347C21.4681 21.4004 21.6 21.0824 21.6001 20.7508C21.6002 20.4192 21.4686 20.1011 21.2342 19.8666L16.4216 15.054C16.377 15.0087 16.3289 14.9669 16.2779 14.929C17.3018 13.5368 17.8529 11.8533 17.8504 10.1252C17.8504 7.97023 16.9944 5.90356 15.4706 4.3798C13.9468 2.85604 11.8802 2 9.72525 2C7.57032 2 5.50366 2.85604 3.9799 4.3798C2.45614 5.90356 1.6001 7.97023 1.6001 10.1252C1.6001 12.2801 2.45614 14.3467 3.9799 15.8705C5.50366 17.3943 7.57032 18.2503 9.72525 18.2503ZM9.72525 7.6026C11.8053 5.51132 17.0066 9.17013 9.72525 13.8752C2.44386 9.17013 7.64521 5.51257 9.72525 7.6026Z" fill="white"/>
</svg>
