<svg width="21" height="20" viewBox="0 0 21 20" fill="none" xmlns="http://www.w3.org/2000/svg">
<path fill-rule="evenodd" clip-rule="evenodd" d="M11.4869 19.388L12.0289 18.472C12.4489 17.762 12.6589 17.406 12.9969 17.21C13.3349 17.013 13.7599 17.006 14.6099 16.991C15.8659 16.97 16.6529 16.893 17.3129 16.619C17.9195 16.3677 18.4707 15.9994 18.935 15.5351C19.3993 15.0708 19.7676 14.5196 20.0189 13.913C20.3999 12.995 20.3999 11.83 20.3999 9.5V8.5C20.3999 5.227 20.3999 3.59 19.6629 2.388C19.2509 1.7152 18.6855 1.14945 18.0129 0.737C16.8099 0 15.1729 0 11.8999 0H8.8999C5.6269 0 3.9899 0 2.7879 0.737C2.1151 1.14904 1.54935 1.71445 1.1369 2.387C0.399902 3.59 0.399902 5.228 0.399902 8.5V9.5C0.399902 11.83 0.399902 12.995 0.779902 13.913C1.03129 14.5197 1.39974 15.071 1.86422 15.5353C2.32869 15.9996 2.88008 16.3678 3.4869 16.619C4.1469 16.893 4.9339 16.969 6.1899 16.991C7.0399 17.006 7.4649 17.013 7.8029 17.21C8.1399 17.406 8.3509 17.761 8.7709 18.472L9.3129 19.388C9.7959 20.204 11.0029 20.204 11.4869 19.388ZM14.3999 10C14.6651 10 14.9195 9.89464 15.107 9.70711C15.2945 9.51957 15.3999 9.26522 15.3999 9C15.3999 8.73478 15.2945 8.48043 15.107 8.29289C14.9195 8.10536 14.6651 8 14.3999 8C14.1347 8 13.8803 8.10536 13.6928 8.29289C13.5053 8.48043 13.3999 8.73478 13.3999 9C13.3999 9.26522 13.5053 9.51957 13.6928 9.70711C13.8803 9.89464 14.1347 10 14.3999 10ZM11.3999 9C11.3999 9.26522 11.2945 9.51957 11.107 9.70711C10.9195 9.89464 10.6651 10 10.3999 10C10.1347 10 9.88033 9.89464 9.6928 9.70711C9.50526 9.51957 9.3999 9.26522 9.3999 9C9.3999 8.73478 9.50526 8.48043 9.6928 8.29289C9.88033 8.10536 10.1347 8 10.3999 8C10.6651 8 10.9195 8.10536 11.107 8.29289C11.2945 8.48043 11.3999 8.73478 11.3999 9ZM6.3999 10C6.66512 10 6.91947 9.89464 7.10701 9.70711C7.29455 9.51957 7.3999 9.26522 7.3999 9C7.3999 8.73478 7.29455 8.48043 7.10701 8.29289C6.91947 8.10536 6.66512 8 6.3999 8C6.13469 8 5.88033 8.10536 5.6928 8.29289C5.50526 8.48043 5.3999 8.73478 5.3999 9C5.3999 9.26522 5.50526 9.51957 5.6928 9.70711C5.88033 9.89464 6.13469 10 6.3999 10Z" fill="#AAAAAA"/>
</svg>
