<svg width="43" height="40" viewBox="0 0 43 40" fill="none" xmlns="http://www.w3.org/2000/svg">
<rect width="43" height="40" rx="20" fill="#2C2C2C"/>
<path d="M31.5 30L29.5 28M21 29C22.2476 29 23.4829 28.7543 24.6355 28.2769C25.7881 27.7994 26.8354 27.0997 27.7175 26.2175C28.5997 25.3354 29.2994 24.2881 29.7769 23.1355C30.2543 21.9829 30.5 20.7476 30.5 19.5C30.5 18.2524 30.2543 17.0171 29.7769 15.8645C29.2994 14.7119 28.5997 13.6646 27.7175 12.7825C26.8354 11.9003 25.7881 11.2006 24.6355 10.7231C23.4829 10.2457 22.2476 10 21 10C18.4804 10 16.0641 11.0009 14.2825 12.7825C12.5009 14.5641 11.5 16.9804 11.5 19.5C11.5 22.0196 12.5009 24.4359 14.2825 26.2175C16.0641 27.9991 18.4804 29 21 29Z" stroke="#F6F8FA" strokeWidth="1.5" strokeLinecap="round" strokeLinejoin="round"/>
</svg>
