<svg width="25" height="24" viewBox="0 0 25 24" fill="none" xmlns="http://www.w3.org/2000/svg">
<path fill-rule="evenodd" clip-rule="evenodd" d="M21.8002 11.9999C21.8002 17.3018 17.5022 21.5999 12.2002 21.5999C6.89829 21.5999 2.60022 17.3018 2.60022 11.9999C2.60022 6.69797 6.89829 2.3999 12.2002 2.3999C17.5022 2.3999 21.8002 6.69797 21.8002 11.9999ZM14.6002 8.3999C14.6002 9.72539 13.5257 10.7999 12.2002 10.7999C10.8747 10.7999 9.80022 9.72539 9.80022 8.3999C9.80022 7.07442 10.8747 5.9999 12.2002 5.9999C13.5257 5.9999 14.6002 7.07442 14.6002 8.3999ZM12.2001 13.1999C9.77909 13.1999 7.69295 14.6338 6.7447 16.6988C8.06505 18.2303 10.0194 19.1999 12.2002 19.1999C14.381 19.1999 16.3353 18.2304 17.6556 16.6989C16.7074 14.6339 14.6212 13.1999 12.2001 13.1999Z" fill="#F5F5F5"/>
</svg>
